<svg xmlns="http://www.w3.org/2000/svg" viewBox="0 0 490.93 526.02"><defs><style>.cls-1,.cls-2,.cls-4{fill:#0568c2;}.cls-1,.cls-4{stroke:#0568c2;}.cls-1,.cls-3,.cls-4,.cls-6,.cls-7{stroke-miterlimit:10;}.cls-3,.cls-6,.cls-7{fill:none;stroke:lime;}.cls-3{stroke-width:40px;}.cls-4{stroke-width:10px;}.cls-5{fill:lime;}.cls-6{stroke-width:13px;}.cls-7{stroke-width:0.25px;}</style></defs><g id="Layer_2" data-name="Layer 2"><g id="Layer_2-2" data-name="Layer 2"><ellipse class="cls-1" cx="245.47" cy="263.01" rx="244.97" ry="262.51"/><circle class="cls-2" cx="247.08" cy="268" r="182.5"/><circle class="cls-3" cx="247.08" cy="268" r="182.5"/><ellipse class="cls-4" cx="247.08" cy="144" rx="104" ry="130"/><ellipse class="cls-4" cx="216.58" cy="154" rx="0.5" ry="8"/></g><g id="Layer_1-2" data-name="Layer 1"><path class="cls-5" d="M272.08,48c0-14.3-11.47-26-25.5-26s-25.5,11.7-25.5,26V333c0,14.3,11.48,26,25.5,26s25.5-11.7,25.5-26Z"/><path class="cls-6" d="M272.08,48c0-14.3-11.47-26-25.5-26s-25.5,11.7-25.5,26V333c0,14.3,11.48,26,25.5,26s25.5-11.7,25.5-26Z"/><path class="cls-5" d="M362.66,101.14C352.16,91.43,337.54,90,330.18,98s-4.79,22.42,5.71,32.13L351,144.05c10.5,9.7,25.12,11.13,32.48,3.16s4.79-22.42-5.71-32.13Z"/><path class="cls-7" d="M362.66,101.14C352.16,91.43,337.54,90,330.18,98s-4.79,22.42,5.71,32.13L351,144.05c10.5,9.7,25.12,11.13,32.48,3.16s4.79-22.42-5.71-32.13Z"/><path class="cls-5" d="M157.29,129.92c10.5-9.7,13.07-24.16,5.71-32.13s-22-6.54-32.48,3.17l-15.08,13.93c-10.51,9.71-13.07,24.17-5.71,32.13s22,6.55,32.48-3.16Z"/><path class="cls-7" d="M157.29,129.92c10.5-9.7,13.07-24.16,5.71-32.13s-22-6.54-32.48,3.17l-15.08,13.93c-10.51,9.71-13.07,24.17-5.71,32.13s22,6.55,32.48-3.16Z"/></g></g></svg>