<svg xmlns="http://www.w3.org/2000/svg" viewBox="0 0 859 859"><defs><style>.cls-1{fill:#0568c2;}.cls-2{fill:none;stroke:#0568c2;}.cls-2,.cls-4,.cls-5{stroke-miterlimit:10;}.cls-3,.cls-5{fill:#fff;}.cls-4{fill:#f2f2f2;}.cls-4,.cls-5{stroke:#fff;}</style></defs><g id="Layer_2" data-name="Layer 2"><g id="Icon_Box"><rect class="cls-1" x="0.5" y="0.5" width="858" height="744" rx="50"/><rect class="cls-2" x="0.5" y="0.5" width="858" height="744" rx="50"/></g><g id="Boat"><rect class="cls-3" x="177.5" y="499.5" width="494" height="72"/><path class="cls-3" d="M671,500v71H178V500H671m1-1H177v73H672V499Z"/><polygon class="cls-3" points="109.16 499.5 244.76 499.5 176.96 571.27 109.16 499.5"/><path class="cls-3" d="M243.6,500,177,570.54,110.32,500H243.6m2.32-1H108l69,73,69-73Z"/><polygon class="cls-3" points="654.75 499.5 688.37 499.5 671.56 569.85 654.75 499.5"/><path class="cls-3" d="M687.73,500l-16.17,67.7L655.38,500h32.35m1.27-1H654.12l17.44,73L689,499Z"/><rect class="cls-3" x="425.5" y="127.5" width="14" height="371"/><path class="cls-3" d="M439,128V498H426V128h13m1-1H425V499h15V127Z"/><circle class="cls-3" cx="432.5" cy="127.5" r="7"/><path class="cls-3" d="M432.5,121a6.5,6.5,0,1,1-6.5,6.5,6.51,6.51,0,0,1,6.5-6.5m0-1a7.5,7.5,0,1,0,7.5,7.5,7.5,7.5,0,0,0-7.5-7.5Z"/><polyline class="cls-4" points="613 464 454.36 465.26 451.63 120.38"/><path class="cls-5" d="M193,465l224.37-1.78q-1.31-164.55-2.62-329.09Z"/><path class="cls-5" d="M193.5,464.5S300.29,163,415,134"/></g></g></svg>