<svg xmlns="http://www.w3.org/2000/svg" viewBox="0 0 591 591"><defs><style>.cls-1{fill:red;stroke:red;}.cls-1,.cls-3{stroke-miterlimit:10;}.cls-2{fill:#fff;}.cls-3{fill:none;stroke:#fff;}</style></defs><g id="Layer_2" data-name="Layer 2"><g id="Layer_2-2" data-name="Layer 2"><circle class="cls-1" cx="295.5" cy="295.5" r="295"/></g><g id="Layer_1-2" data-name="Layer 1"><path class="cls-2" d="M499.91,462.91c10.5,10.5,10.78,27.4.63,37.55s-27.06,9.88-37.56-.62L91.77,128.63c-10.5-10.5-10.79-27.4-.63-37.56s27.06-9.87,37.56.63Z"/><path class="cls-3" d="M499.91,462.91c10.5,10.5,10.78,27.4.63,37.55s-27.06,9.88-37.56-.62L91.77,128.63c-10.5-10.5-10.79-27.4-.63-37.56s27.06-9.87,37.56.63Z"/><path class="cls-2" d="M128.44,500c-10.5,10.5-27.41,10.78-37.56.63s-9.88-27.06.62-37.56L462.72,91.84c10.5-10.5,27.4-10.78,37.56-.63s9.87,27.06-.63,37.56Z"/><path class="cls-3" d="M128.44,500c-10.5,10.5-27.41,10.78-37.56.63s-9.88-27.06.62-37.56L462.72,91.84c10.5-10.5,27.4-10.78,37.56-.63s9.87,27.06-.63,37.56Z"/></g></g></svg>