<svg id="Layer_1" data-name="Layer 1" xmlns="http://www.w3.org/2000/svg" viewBox="0 0 630 730.47"><defs><style>.cls-1{fill:#0568c2;}.cls-2{font-size:540.34px;fill:#fff;stroke:#fff;stroke-miterlimit:10;font-family:ChalkboardSE-Regular, Chalkboard SE;letter-spacing:0.02em;}</style></defs><path class="cls-1" d="M630,688A314.51,314.51,0,0,1,407.61,151.11,314.5,314.5,0,1,1,852.38,595.88,312.39,312.39,0,0,1,630,688Z" transform="translate(-315 -58.5)"/><path d="M630,59.5A314.08,314.08,0,0,1,752.22,662.82,314.08,314.08,0,0,1,507.78,84.18,311.9,311.9,0,0,1,630,59.5m0-1c-174,0-315,141-315,315s141,315,315,315,315-141,315-315-141-315-315-315Z" transform="translate(-315 -58.5)"/><text class="cls-2" transform="translate(205.01 503.09) scale(1.7 1)">i</text></svg>